<?xml version="1.0" encoding="utf-8" ?>
<svg xmlns="http://www.w3.org/2000/svg" xmlns:xlink="http://www.w3.org/1999/xlink" width="1024" height="1024">
	<path fill="#E04C61" transform="scale(1.6 1.6)" d="M322.534 167.323L322.974 166.977C330.982 160.614 337.695 152.812 345.959 146.649C413.179 96.5272 516.049 120.158 551.776 197.677C550.378 197.403 548.897 196.46 547.58 195.885C523.709 185.466 514.622 206.179 488.35 203.322C467.699 201.076 464.014 185.054 442.003 186.349C420.114 187.636 417.71 204.963 390.994 201.548C378.607 199.964 368.974 194.816 360.809 185.374C348.785 171.47 340.932 169.649 322.534 167.323Z"/>
	<path fill="#E04C61" transform="scale(1.6 1.6)" d="M87.9662 198.662C105.261 157.641 148.766 127.941 192.006 121.799C228.058 116.679 265.831 124.762 295.188 146.724C303.46 152.913 310.86 160.147 318.179 167.411C296.715 169.598 292.64 170.808 278.963 186.273C272.238 193.877 260.645 199.608 250.698 201.209C222.95 205.674 219.951 187.664 198.427 186.539C168.655 184.983 166.558 216.732 120.4 196.858C108.767 191.849 103.98 191.843 92.4522 197.029C91.0585 197.656 89.5062 198.526 87.9662 198.662Z"/>
	<path fill="#F8A95F" transform="scale(1.6 1.6)" d="M113.689 344.064C114.565 342.695 114.934 341.128 115.404 339.59C119.081 327.546 125.995 323.458 138.154 321.849C162.667 318.605 161.53 343.268 178.857 347.182C187.225 349.073 198.563 345.269 204.415 339.119C213.941 329.106 217.109 320.538 235.062 324.958C248.293 328.215 252.027 341.88 258.293 352.218C283.308 393.487 352.809 394.505 380.734 354.141C390 340.748 392.901 324.214 412.936 323.609C431.513 323.048 429.109 341.985 446.482 346.059C454.6 347.963 466.652 345.377 471.849 338.448C476.159 332.702 475.812 327.873 483.067 323.498C494.314 316.715 519.148 322.923 525.401 334.353C526.778 336.87 527.138 340.088 528.576 342.423L528.841 342.837C502.342 370.526 476.956 399.28 451.301 427.746C416.702 466.135 381.06 505.909 345.1 542.973C336.246 552.1 323.662 571.415 309.676 557.947C297.525 546.246 286.522 532.992 274.956 520.695C222.362 464.778 172.027 407.242 120.06 350.915C117.98 348.66 115.595 346.452 113.689 344.064Z"/>
	<path fill="#E04C61" transform="scale(1.6 1.6)" d="M263.429 396.629L267.518 397.499C274.318 401.067 271.38 410.153 264.483 411.98L260.459 410.809C253.08 406.633 255.248 398.415 263.429 396.629Z"/>
	<path fill="#E04C61" transform="scale(1.6 1.6)" d="M261.934 442.237C272.045 441.42 275.331 455.591 265.432 457.781L261.573 457.158C254 453.965 254.673 444.92 261.934 442.237Z"/>
	<path fill="#E04C61" transform="scale(1.6 1.6)" d="M375.595 442.22C385.918 441.511 389.219 454.936 379.237 457.785L375.49 457.466C367.395 454.968 369.008 445.287 375.595 442.22Z"/>
	<path fill="#E04C61" transform="scale(1.6 1.6)" d="M376.642 396.594L380.785 396.868C388.729 399.913 385.593 410.15 378.941 412.588L376.422 412.182C367.333 409.031 368.835 399.948 376.642 396.594Z"/>
	<path fill="white" transform="scale(1.6 1.6)" d="M318.179 167.411C319.613 168.16 321.058 167.719 322.534 167.323C340.932 169.649 348.785 171.47 360.809 185.374C368.974 194.816 378.607 199.964 390.994 201.548C417.71 204.963 420.114 187.636 442.003 186.349C464.014 185.054 467.699 201.076 488.35 203.322C514.622 206.179 523.709 185.466 547.58 195.885C548.897 196.46 550.378 197.403 551.776 197.677C553.135 198.85 554.121 201.825 554.807 203.464C564.157 225.803 568.436 260.657 560.188 283.766C553.495 305.432 544.504 326.048 528.841 342.837L528.576 342.423C527.138 340.088 526.778 336.87 525.401 334.353C519.148 322.923 494.314 316.715 483.067 323.498C475.812 327.873 476.159 332.702 471.849 338.448C466.652 345.377 454.6 347.963 446.482 346.059C429.109 341.985 431.513 323.048 412.936 323.609C392.901 324.214 390 340.748 380.734 354.141C352.809 394.505 283.308 393.487 258.293 352.218C252.027 341.88 248.293 328.215 235.062 324.958C217.109 320.538 213.941 329.106 204.415 339.119C198.563 345.269 187.225 349.073 178.857 347.182C161.53 343.268 162.667 318.605 138.154 321.849C125.995 323.458 119.081 327.546 115.404 339.59C114.934 341.128 114.565 342.695 113.689 344.064C97.0216 327.042 86.4958 306.214 80.1078 283.369C72.6746 263.221 76.8782 228.07 83.4605 208.648C84.5756 205.358 85.6329 201.315 87.9662 198.662C89.5062 198.526 91.0585 197.656 92.4522 197.029C103.98 191.843 108.767 191.849 120.4 196.858C166.558 216.732 168.655 184.983 198.427 186.539C219.951 187.664 222.95 205.674 250.698 201.209C260.645 199.608 272.238 193.877 278.963 186.273C292.64 170.808 296.715 169.598 318.179 167.411Z"/>
	<path fill="#E04C61" transform="scale(1.6 1.6)" d="M291.783 249.654C293.723 204.482 349.917 211.389 348.452 250.144C373.688 248.654 382.11 250.471 402.232 266.797C411.494 274.311 422.601 283.588 434.585 286.143C456.979 290.917 469.303 270.102 489.816 268.487C516.816 266.361 520.715 296.504 560.188 283.766C553.495 305.432 544.504 326.048 528.841 342.837L528.576 342.423C527.138 340.088 526.778 336.87 525.401 334.353C519.148 322.923 494.314 316.715 483.067 323.498C475.812 327.873 476.159 332.702 471.849 338.448C466.652 345.377 454.6 347.963 446.482 346.059C429.109 341.985 431.513 323.048 412.936 323.609C392.901 324.214 390 340.748 380.734 354.141C352.809 394.505 283.308 393.487 258.293 352.218C252.027 341.88 248.293 328.215 235.062 324.958C217.109 320.538 213.941 329.106 204.415 339.119C198.563 345.269 187.225 349.073 178.857 347.182C161.53 343.268 162.667 318.605 138.154 321.849C125.995 323.458 119.081 327.546 115.404 339.59C114.934 341.128 114.565 342.695 113.689 344.064C97.0216 327.042 86.4958 306.214 80.1078 283.369C84.7349 283.982 88.7856 286.427 93.6585 286.569C120.312 287.346 129.122 266.71 150.956 268.204C170.436 269.536 181.342 291.249 204.214 286.067C229.111 280.427 242.294 256.19 267.992 250.978C275.824 249.39 283.836 249.651 291.783 249.654Z"/>
	<path fill="#F8A95F" transform="scale(1.6 1.6)" d="M291.783 249.654C293.723 204.482 349.917 211.389 348.452 250.144L345.248 257.959C340.69 267.761 334.058 271.695 324.241 275.298C328.404 276.371 332.419 277.672 336.26 279.632C364.675 294.13 361.757 337.63 330.599 347.147C299.672 356.594 273.749 321.981 288.689 294.658C294.94 283.226 304.38 279.124 316.336 275.569C304.049 272.225 293.265 262.978 291.783 249.654Z"/>
</svg>
