<?xml version="1.0" encoding="utf-8" ?>
<svg xmlns="http://www.w3.org/2000/svg" xmlns:xlink="http://www.w3.org/1999/xlink" width="1024" height="1024">
	<defs>
		<linearGradient id="gradient_0" gradientUnits="userSpaceOnUse" x1="519.10809" y1="158.39267" x2="528.48346" y2="102.58068">
			<stop offset="0" stop-color="#EB7600"/>
			<stop offset="1" stop-color="#EA8E04"/>
		</linearGradient>
	</defs>
	<path fill="url(#gradient_0)" transform="scale(1.6 1.6)" d="M552.833 106.106C566.475 134.011 544.889 168.606 514.53 157.928C500.998 153.168 493.127 139.95 492.469 126.021L493.335 122.311C494.842 123.788 496.323 130.47 499.718 134.046C517.952 153.252 554.992 142.111 552.762 114.032C552.572 111.644 551.927 109.186 551.968 106.802L552.833 106.106Z"/>
	<path fill="#FECA01" transform="scale(1.6 1.6)" d="M492.469 126.021C491.637 121.357 492.558 115.831 494.109 111.392C503.567 84.3204 541.826 82.0178 552.833 106.106L551.968 106.802C551.927 109.186 552.572 111.644 552.762 114.032C554.992 142.111 517.952 153.252 499.718 134.046C496.323 130.47 494.842 123.788 493.335 122.311L492.469 126.021Z"/>
	<path fill="#DEDEDE" transform="scale(1.6 1.6)" d="M506.015 100.873L506.07 101.662C504.343 104.065 501.306 110.542 499.127 111.835L498.9 110.287C499.417 106.907 503.448 102.918 506.015 100.873Z"/>
	<path fill="#E33913" transform="scale(1.6 1.6)" d="M116.101 486.057C150.069 482.405 170.617 522.818 149.555 549.561C143.624 557.092 135.843 561.658 126.327 562.78C116.673 563.166 107.924 562.627 99.9118 556.677C72.1034 536.026 81.3872 490.682 116.101 486.057Z"/>
	<path fill="#E85B76" transform="scale(1.6 1.6)" d="M116.623 495.124C152.887 490.855 164.304 545.472 121.95 549.876C80.1212 551.945 79.5338 498.272 116.623 495.124Z"/>
	<path fill="#DEDEDE" transform="scale(1.6 1.6)" d="M227.555 514.749L227.062 514.736C223.924 514.673 219.196 511.168 216.466 509.534C144.681 466.58 102.557 396.087 102.378 311.064C102.354 299.532 102.699 288.32 104.421 276.894C119.323 177.99 203.434 95.0726 302.946 82.9022C314.065 81.5425 325.091 81.3283 336.272 81.3426L336.124 85.3454C329.68 94.3078 325.28 104.349 319.393 113.617C307.065 116.053 295.159 116.762 282.76 120.055C235.885 132.502 194.915 163.316 168.006 203.409C110.258 289.451 132.605 411.805 218.572 469.338L238.638 482.136L227.555 514.749Z"/>
	<path fill="#DEDEDE" transform="scale(1.6 1.6)" d="M423.297 112.668C426.214 112.756 429.816 115.246 432.305 116.667C516.949 164.987 559.287 264.206 536.89 358.219C510.883 467.387 414.887 537.934 302.775 533.99C296.367 533.764 267.669 531.348 263.934 527.625L263.372 526.886C273.325 518.426 281.72 508.25 290.704 498.812L290.813 498.738C329.521 504.49 370.836 496.615 405.389 478.361C524.824 415.262 544.805 251.683 443.428 165.652C433.619 157.328 422.978 150.501 412.003 143.85C416.083 136.457 420.736 120.826 423.297 112.668Z"/>
	<path fill="#E33913" transform="scale(1.6 1.6)" d="M319.393 113.617C310.694 133.11 299.373 151.33 288.94 169.918C261.62 218.59 233.03 266.544 205.676 315.185C202.284 321.216 198.445 327.313 196.017 333.804C191.361 346.251 197.785 358.251 211.478 359.582C217.941 360.211 224.74 359.78 231.238 359.772C248.815 359.75 266.803 358.946 284.345 360.003C271.71 396.648 258.159 433.124 244.004 469.22C242.324 473.503 240.755 478.051 238.638 482.136L218.572 469.338C132.605 411.805 110.258 289.451 168.006 203.409C194.915 163.316 235.885 132.502 282.76 120.055C295.159 116.762 307.065 116.053 319.393 113.617Z"/>
	<path fill="#E33913" transform="scale(1.6 1.6)" d="M412.003 143.85C422.978 150.501 433.619 157.328 443.428 165.652C544.805 251.683 524.824 415.262 405.389 478.361C370.836 496.615 329.521 504.49 290.813 498.738C292.924 495.045 297.83 490.376 300.785 487.081C311.077 475.608 321.656 464.515 332.318 453.392C365.387 418.893 396.836 382.835 429.817 348.234C439.299 338.286 452.293 327.958 455.988 314.151L456.583 309.727C456.562 300.314 449.377 291.464 440.21 289.458C432.148 287.695 419.015 288.542 410.442 288.539C393.8 288.535 377.148 288.425 360.507 288.607C361.713 283.72 363.607 279.003 365.281 274.262C378.769 236.064 393.369 198.298 406.221 159.863C407.85 154.993 409.39 148.209 412.003 143.85Z"/>
	<path fill="#FECA01" transform="scale(1.6 1.6)" d="M336.124 85.3454C342.618 78.7785 349.84 74.7441 359.202 74.6673C369.171 74.5856 405.737 73.2868 413.889 75.2972C421.667 77.2153 428.037 85.2928 427.952 93.2977C427.884 99.7416 425.155 106.541 423.297 112.668C420.736 120.826 416.083 136.457 412.003 143.85C409.39 148.209 407.85 154.993 406.221 159.863C393.369 198.298 378.769 236.064 365.281 274.262C363.607 279.003 361.713 283.72 360.507 288.607C377.148 288.425 393.8 288.535 410.442 288.539C419.015 288.542 432.148 287.695 440.21 289.458C449.377 291.464 456.562 300.314 456.583 309.727L455.988 314.151C452.293 327.958 439.299 338.286 429.817 348.234C396.836 382.835 365.387 418.893 332.318 453.392C321.656 464.515 311.077 475.608 300.785 487.081C297.83 490.376 292.924 495.045 290.813 498.738L290.704 498.812C281.72 508.25 273.325 518.426 263.372 526.886L263.097 527.015C255.88 534.316 234.795 558.486 229.275 561.518C221.663 565.699 214.08 558.589 215.145 550.83C216.367 541.926 224.385 524.328 227.555 514.749L238.638 482.136C240.755 478.051 242.324 473.503 244.004 469.22C258.159 433.124 271.71 396.648 284.345 360.003C266.803 358.946 248.815 359.75 231.238 359.772C224.74 359.78 217.941 360.211 211.478 359.582C197.785 358.251 191.361 346.251 196.017 333.804C198.445 327.313 202.284 321.216 205.676 315.185C233.03 266.544 261.62 218.59 288.94 169.918C299.373 151.33 310.694 133.11 319.393 113.617C325.28 104.349 329.68 94.3078 336.124 85.3454Z"/>
	<defs>
		<linearGradient id="gradient_1" gradientUnits="userSpaceOnUse" x1="277.90671" y1="514.06775" x2="273.62509" y2="508.7063">
			<stop offset="0" stop-color="#FEDD0B"/>
			<stop offset="1" stop-color="#FFFF60"/>
		</linearGradient>
	</defs>
	<path fill="url(#gradient_1)" transform="scale(1.6 1.6)" d="M288.109 496.13L288.221 499.092L290.704 498.812C281.72 508.25 273.325 518.426 263.372 526.886L263.097 527.015L262.935 526.229C266.502 518.228 281.472 503.172 288.109 496.13Z"/>
	<path fill="#FEFC9B" transform="scale(1.6 1.6)" d="M288.109 496.13C319.385 459.157 354.753 422.827 388.008 387.47C401.439 373.191 414.488 358.583 428.065 344.437C434.713 337.511 441.782 330.802 448.039 323.525C449.54 321.779 454.565 314.46 455.988 314.151C452.293 327.958 439.299 338.286 429.817 348.234C396.836 382.835 365.387 418.893 332.318 453.392C321.656 464.515 311.077 475.608 300.785 487.081C297.83 490.376 292.924 495.045 290.813 498.738L290.704 498.812L288.221 499.092L288.109 496.13Z"/>
</svg>
