<?xml version="1.0" encoding="utf-8" ?>
<svg xmlns="http://www.w3.org/2000/svg" xmlns:xlink="http://www.w3.org/1999/xlink" width="1024" height="1024">
	<path fill="#E33913" transform="scale(1.6 1.6)" d="M541.668 356.051C555.34 382.869 559.539 409.621 550.098 438.755C539.444 471.631 520.902 486.093 497.658 508.71C492.374 513.852 454.817 551.82 450.915 553.737L448.005 554.62C439.958 552.478 433.719 544.167 427.9 538.662C420.106 531.288 412.027 524.158 404.369 516.651C399.799 512.172 395.687 507.228 391.02 502.855C392.778 500.639 397.277 497.037 399.551 494.844C405.758 488.856 411.81 482.699 417.915 476.606C448.421 446.161 479.903 416.749 510.54 386.443C520.782 376.313 532.449 367.116 541.668 356.051Z"/>
	<path fill="#E33913" transform="scale(1.6 1.6)" d="M148.151 331.113C134.949 322.896 120.953 316.42 105.885 312.554C101.733 311.489 96.2776 310.831 92.6188 308.515C85.1424 303.783 75.7921 274.183 73.9207 265.171C66.846 231.102 74.2593 193.5 93.322 164.57C135.519 100.531 215.906 84.7508 279.755 126.966C241.18 132.273 205.2 153.61 181.641 184.671C144.664 233.421 149.635 295.381 177.718 346.691C178.77 348.613 181.247 350.94 179.913 352.995C169.539 345.673 159.78 336.464 148.151 331.113ZM149.009 151.598C145.262 152.68 142.352 153.979 140.441 157.613L138.931 162.457C140.999 168.838 144 171.579 150.634 171.563C164.361 168.938 161.906 150.738 149.009 151.598ZM123.108 183.499C112.183 189.448 117.656 205.777 129.683 202.15C138.2 197.493 138.654 185.625 127.762 183.553L123.108 183.499Z"/>
	<path fill="#DEDEDE" transform="scale(1.6 1.6)" d="M490.528 330.163L491.093 330.233C493.946 330.534 498.105 329.346 501.062 328.92C515.195 326.887 522.135 330.719 531.261 341.319C535.11 345.788 539.078 350.747 541.668 356.051C532.449 367.116 520.782 376.313 510.54 386.443C479.903 416.749 448.421 446.161 417.915 476.606C411.81 482.699 405.758 488.856 399.551 494.844C397.277 497.037 392.778 500.639 391.02 502.855C389.366 502.333 383.488 509.1 382.069 510.418C369.965 521.656 357.922 532.963 345.834 544.219C333.895 555.337 323.007 571.517 306.222 556.223C300.327 550.852 294.794 544.969 289.146 539.333C257.934 508.192 226.007 478.111 194.595 447.308C185.462 438.352 176.624 429.099 167.474 420.166C156.333 409.29 101.474 359.291 96.6666 347.551C101.664 318.503 144.901 333.559 148.151 331.113C159.78 336.464 169.539 345.673 179.913 352.995C184.236 356.773 188.15 361.214 192.161 365.335C206.032 379.582 220.422 393.204 234.525 407.203C254.154 426.688 273.512 446.498 293.539 465.576C300.67 472.369 311.942 485.416 319.636 490.244C324.324 486.915 328.426 482.103 332.422 477.975C360.444 449.031 390.193 420.034 419.027 391.73C438.733 372.386 465.189 341.771 490.528 330.163Z"/>
	<path fill="#FECA01" transform="scale(1.6 1.6)" d="M318.887 176.101C324.811 152.596 341.156 134.307 361.829 121.965C462.213 62.036 582.415 162.249 553.307 275.868C551.517 282.856 543.581 305.84 538.33 308.991C534.748 311.14 526.598 312.698 521.981 314.561C511.171 318.925 500.656 324.409 490.528 330.163C465.189 341.771 438.733 372.386 419.027 391.73C390.193 420.034 360.444 449.031 332.422 477.975C328.426 482.103 324.324 486.915 319.636 490.244C311.942 485.416 300.67 472.369 293.539 465.576C273.512 446.498 254.154 426.688 234.525 407.203C220.422 393.204 206.032 379.582 192.161 365.335C188.15 361.214 184.236 356.773 179.913 352.995C181.247 350.94 178.77 348.613 177.718 346.691C149.635 295.381 144.664 233.421 181.641 184.671C205.2 153.61 241.18 132.273 279.755 126.966C293.03 133.656 313.674 159.954 318.365 174.222L318.887 176.101Z"/>
	<path fill="#E33913" transform="scale(1.6 1.6)" d="M194.364 319.901L196.221 320.895C200.696 323.625 200.999 326.402 198.291 330.632L195.191 333.169C195.61 328.81 196.413 323.976 194.364 319.901Z"/>
	<path fill="#E33913" transform="scale(1.6 1.6)" d="M412.704 236.061L409.487 236.64L407.026 235.207C403.481 230.944 398.973 217.705 398.003 212.102C392.822 182.182 434.92 164.668 448.401 195.65C450.177 199.733 450.929 203.876 453.719 207.461L456.925 210.202C478.555 194.244 500.567 219.096 491.442 233.217C488.691 237.474 484.815 241.249 481.461 245.048C475.252 252.08 461.637 271.578 450.568 269.474C440.624 267.584 426.456 250.855 420.102 243.056C417.92 240.377 416.691 235.558 412.704 236.061Z"/>
	<path fill="#E33913" transform="scale(1.6 1.6)" d="M319.781 244.279C378.894 198.236 437.302 266.407 405.176 314.258C398.878 323.639 387.855 332.791 379.76 340.901C366.012 354.672 352.462 368.785 338.441 382.27C316.684 404.362 306.923 390.246 290.583 373.897C278.073 361.379 265.846 348.441 252.865 336.408C245.336 329.428 237.581 322.76 232.25 313.841C206.185 270.234 245.656 218.766 296.518 232.112C304.936 235.071 312.501 239.149 319.781 244.279Z"/>
</svg>
